<svg width="41" height="42" viewBox="0 0 41 42" fill="none" xmlns="http://www.w3.org/2000/svg">
<g clip-path="url(#clip0_422_25)">
<path d="M10.8381 0.879113C10.6818 1.02325 10.549 1.35157 10.2443 2.38458C9.19745 5.93204 8.78339 8.04611 8.64276 10.6486L8.58807 11.6736H11.2287H13.8693L13.8146 10.6246C13.6818 7.99005 13.2131 5.62775 12.0881 1.92814C11.8771 1.25548 11.7599 0.991222 11.6037 0.871105C11.3459 0.654894 11.0881 0.662902 10.8381 0.879113Z" fill="#63626D"/>
<path d="M20.2756 3.50568C20.0412 3.60177 19.9865 3.7379 19.549 5.21134C18.4943 8.79083 18.1115 10.8248 17.9553 13.6516L17.9084 14.3963H20.5646H23.2209L23.174 13.6516C23.0178 10.8729 22.6271 8.79083 21.6115 5.30743C21.1506 3.7379 21.1271 3.68185 20.8693 3.54572C20.6193 3.40958 20.5256 3.40158 20.2756 3.50568Z" fill="#63626D"/>
<path d="M29.6506 6.22833C29.3771 6.34044 29.2756 6.58068 28.8224 8.15021C27.799 11.6656 27.4474 13.5315 27.3146 16.126L27.2599 17.119H29.9006H32.5412L32.4865 16.134C32.3849 14.2842 32.1115 12.4744 31.6584 10.6326C31.2365 8.93497 30.4943 6.52462 30.3537 6.38048C30.174 6.1963 29.8693 6.13224 29.6506 6.22833Z" fill="#63626D"/>
<path d="M8.53339 14.6766V16.3182L8.02557 17.3592C7.74432 17.9277 7.51776 18.4162 7.51776 18.4402C7.51776 18.4643 9.18964 18.4803 11.2287 18.4803C13.2678 18.4803 14.9396 18.4643 14.9396 18.4402C14.9396 18.4162 14.7131 17.9277 14.4318 17.3592L13.924 16.3182V14.6766V13.035H11.2287H8.53339V14.6766Z" fill="#63626D"/>
<path d="M17.9084 17.3592V18.9608L17.3615 20.0818L16.8146 21.2029H20.5646H24.3146L23.7678 20.0818L23.2209 18.9608V17.3592V15.7576H20.5646H17.9084V17.3592Z" fill="#63626D"/>
<path d="M27.2053 20.1219V21.7635L26.6974 22.8045C26.4162 23.3731 26.1896 23.8615 26.1896 23.8856C26.1896 23.9096 27.8615 23.9256 29.9006 23.9256C31.9396 23.9256 33.6115 23.9096 33.6115 23.8856C33.6115 23.8615 33.3849 23.3731 33.1037 22.8045L32.5959 21.7635V20.1219V18.4803H29.9006H27.2053V20.1219Z" fill="#63626D"/>
<path d="M7.22089 27.3449L7.24432 34.8563H11.2287H15.2131L15.2365 27.3449L15.2521 19.8416H11.2287H7.20526L7.22089 27.3449Z" fill="#63626D"/>
<path d="M16.5803 28.7303V34.8963H20.5646H24.549V28.7303V22.5643H20.5646H16.5803V28.7303Z" fill="#63626D"/>
<path d="M25.8928 30.0676L25.9162 34.8563H29.9006H33.8849L33.9084 30.0676L33.924 25.2869H29.9006H25.8771L25.8928 30.0676Z" fill="#63626D"/>
<path d="M7.59589 37.1385C7.78339 37.8992 7.79901 38.0274 7.69745 38.1154C7.63495 38.1635 7.50995 38.3557 7.4162 38.5318C7.27557 38.8041 7.24432 38.9963 7.24432 39.669C7.24432 40.4297 7.25995 40.4938 7.4787 40.8621C7.65057 41.1504 7.83026 41.3186 8.13495 41.4787L8.54901 41.7029H11.2209H13.8928L14.3224 41.4867C14.6349 41.3186 14.799 41.1664 14.9787 40.8701C15.1974 40.5018 15.2131 40.4217 15.2131 39.669C15.2131 38.9963 15.1818 38.8041 15.0412 38.5318C14.9474 38.3557 14.8224 38.1635 14.7599 38.1154C14.6584 38.0274 14.674 37.8992 14.8615 37.1385L15.0803 36.2576H11.2287H7.37714L7.59589 37.1385Z" fill="#63626D"/>
<path d="M16.7365 36.2977C16.7365 36.3217 16.8303 36.7221 16.9396 37.1865L17.1506 38.0274L16.9865 38.2035C16.6974 38.5238 16.5803 38.9322 16.5803 39.6609C16.5803 40.6779 16.8615 41.2225 17.5568 41.5508C17.8381 41.6869 18.1037 41.7029 20.5646 41.7029C23.0256 41.7029 23.2912 41.6869 23.5724 41.5508C24.2678 41.2225 24.549 40.6779 24.549 39.6609C24.549 38.9322 24.4318 38.5238 24.1428 38.2035L23.9787 38.0274L24.1896 37.1865C24.299 36.7221 24.3928 36.3217 24.3928 36.2977C24.3928 36.2736 22.674 36.2576 20.5646 36.2576C18.4631 36.2576 16.7365 36.2736 16.7365 36.2977Z" fill="#63626D"/>
<path d="M26.2678 37.1385C26.4553 37.8992 26.4709 38.0274 26.3693 38.1154C26.3068 38.1635 26.1818 38.3557 26.0881 38.5318C25.9474 38.8041 25.9162 38.9963 25.9162 39.669C25.9162 40.4217 25.9318 40.5018 26.1506 40.8701C26.3303 41.1664 26.4943 41.3186 26.8068 41.4867L27.2365 41.7029H29.9084H32.5803L32.9943 41.4787C33.299 41.3186 33.4787 41.1504 33.6506 40.8621C33.8693 40.4938 33.8849 40.4297 33.8849 39.669C33.8849 38.9963 33.8537 38.8041 33.7131 38.5318C33.6193 38.3557 33.4943 38.1635 33.4318 38.1154C33.3303 38.0274 33.3459 37.8992 33.5334 37.1385L33.7521 36.2576H29.9006H26.049L26.2678 37.1385Z" fill="#63626D"/>
</g>
<defs>
<clipPath id="clip0_422_25">
<rect width="40" height="41" fill="white" transform="translate(0.564636 0.702942)"/>
</clipPath>
</defs>
</svg>
