<svg width="34" height="34" viewBox="0 0 34 34" fill="none" xmlns="http://www.w3.org/2000/svg">
<circle cx="16.8806" cy="16.9312" r="15.2235" stroke="white" stroke-width="3"/>
<path fill-rule="evenodd" clip-rule="evenodd" d="M11.1674 11.2364C11.3549 11.049 11.6093 10.9437 11.8744 10.9437C12.1396 10.9437 12.3939 11.049 12.5814 11.2364L16.8744 15.5294L21.1674 11.2364C21.2597 11.1409 21.37 11.0647 21.492 11.0123C21.614 10.9599 21.7452 10.9323 21.878 10.9312C22.0108 10.93 22.1425 10.9553 22.2654 11.0056C22.3883 11.0559 22.4999 11.1302 22.5938 11.224C22.6877 11.3179 22.762 11.4296 22.8122 11.5525C22.8625 11.6754 22.8878 11.8071 22.8867 11.9398C22.8855 12.0726 22.8579 12.2038 22.8055 12.3258C22.7531 12.4478 22.6769 12.5582 22.5814 12.6504L18.2884 16.9434L22.5814 21.2364C22.7636 21.425 22.8644 21.6776 22.8621 21.9398C22.8598 22.202 22.7546 22.4529 22.5692 22.6383C22.3838 22.8237 22.133 22.9288 21.8708 22.9311C21.6086 22.9334 21.356 22.8326 21.1674 22.6504L16.8744 18.3574L12.5814 22.6504C12.3928 22.8326 12.1402 22.9334 11.878 22.9311C11.6158 22.9288 11.365 22.8237 11.1796 22.6383C10.9942 22.4529 10.889 22.202 10.8867 21.9398C10.8845 21.6776 10.9853 21.425 11.1674 21.2364L15.4604 16.9434L11.1674 12.6504C10.9799 12.4629 10.8746 12.2086 10.8746 11.9434C10.8746 11.6783 10.9799 11.424 11.1674 11.2364Z" fill="white"/>
</svg>
