<svg width="35" height="34" viewBox="0 0 35 34" fill="none" xmlns="http://www.w3.org/2000/svg">
<path d="M4.49639 0.558908C4.41776 0.617882 4.14255 0.94551 3.89355 1.28624L3.42832 1.91529L3.2514 1.79734C3.15311 1.73837 2.96309 1.60077 2.83204 1.49592L2.58959 1.3059L2.20954 1.817C1.99986 2.09876 1.7181 2.47881 1.5805 2.66228L1.3446 2.99646L4.9092 5.57818C6.86842 7.00008 8.48035 8.1861 8.48035 8.21231C8.48035 8.23852 8.36241 8.42199 8.21825 8.61857C8.07409 8.81515 7.95615 8.99862 7.95615 9.02483C7.95615 9.05759 8.70314 9.62111 9.6205 10.2895C11.18 11.4165 11.2849 11.5017 11.2259 11.6459C10.9965 12.2552 11.049 13.1005 11.3569 13.7296C11.5601 14.1358 12.1891 14.8173 12.3595 14.8042C12.484 14.8042 16.7038 11.7114 16.6907 11.6328C16.6842 11.5607 14.5808 10.0601 14.548 10.0995C14.5349 10.1126 14.4891 10.4795 14.4497 10.912C14.358 11.8752 14.2728 12.0259 13.8535 12.0259C13.6307 12.0259 13.5455 11.9931 13.4472 11.8555C13.3227 11.6917 13.3227 11.659 13.421 10.604C13.48 10.0077 13.5258 9.47696 13.5258 9.42454C13.5258 9.31314 11.2717 7.62258 7.13708 4.62805C5.6562 3.55343 4.41121 2.64262 4.36534 2.59676C4.29981 2.53123 4.30637 2.48536 4.40466 2.35431C4.47673 2.26913 4.69952 1.96771 4.90265 1.6794C5.32202 1.09622 5.36133 0.873432 5.10578 0.624434C4.92231 0.43441 4.70607 0.414752 4.49639 0.558908Z" fill="#63626D"/>
<path d="M30.0776 0.598185C29.7762 0.834076 29.8351 1.09618 30.3724 1.81696C30.628 2.1577 30.8442 2.47222 30.8573 2.51153C30.8835 2.59017 26.074 6.20063 22.4242 8.84132C20.4453 10.2763 20.4191 10.3025 20.4453 10.5057C20.5829 11.5279 20.7271 13.6509 20.6681 13.7557C20.6353 13.8278 18.9644 15.099 16.9659 16.5865L13.3292 19.2927L12.9754 20.0855C12.5101 21.1143 12.3922 21.5402 12.3922 22.1824C12.3856 22.8376 12.4905 23.2963 12.7853 23.8991C13.0999 24.5413 13.1392 24.5675 13.4668 24.3381C14.1286 23.8795 14.3842 23.3684 14.4431 22.3331C14.4956 21.4485 14.6659 20.9898 15.0984 20.6294C15.236 20.5114 16.979 19.2271 18.9775 17.779C20.9761 16.3309 22.7387 15.0073 22.8894 14.8435C23.2301 14.47 23.4791 13.9458 23.5512 13.4478C23.6036 13.0808 23.5381 12.478 23.4267 12.17C23.3743 12.0324 23.4857 11.9341 25.0321 10.8136C25.9495 10.1518 26.6965 9.58176 26.6965 9.55555C26.6965 9.52279 26.5785 9.33931 26.4344 9.14274C26.2902 8.94616 26.1722 8.76269 26.1722 8.73648C26.1788 8.71027 27.9021 7.40631 30.0055 5.84024L33.8388 2.99643L33.5963 2.66224C33.4587 2.47877 33.1769 2.09872 32.9673 1.81696L32.5872 1.30586L32.3448 1.49589C32.2137 1.60073 32.0237 1.73833 31.9254 1.7973L31.7485 1.9087L31.375 1.3976C30.6477 0.414713 30.4576 0.296766 30.0776 0.598185Z" fill="#63626D"/>
<path d="M14.5415 14.5552C11.9139 16.462 9.75154 18.0477 9.73843 18.0805C9.71222 18.1591 10.3675 18.5916 10.7082 18.7161C10.8786 18.7816 11.2128 18.8275 11.4945 18.834C11.9008 18.8406 12.0449 18.8144 12.3136 18.6768C12.7067 18.4802 19.5476 13.3889 19.6001 13.2578C19.6394 13.1595 19.5083 11.3969 19.4493 11.1872C19.4297 11.1282 19.3969 11.0758 19.3707 11.0758C19.3445 11.0824 17.1756 12.6419 14.5415 14.5552Z" fill="#63626D"/>
<path d="M22.0441 16.842C21.592 17.1696 21.225 17.4645 21.225 17.4973C21.225 17.53 21.5789 17.8052 22.0048 18.1198C22.9222 18.775 23.2629 18.9061 23.9837 18.8602C24.521 18.8209 25.0452 18.6046 25.3466 18.2901L25.5301 18.1001L24.272 17.1958C23.584 16.6913 22.9877 16.2785 22.9418 16.2654C22.8959 16.2588 22.4962 16.5144 22.0441 16.842Z" fill="#63626D"/>
<path d="M19.41 18.7554C18.9513 19.0896 18.5713 19.391 18.5647 19.4238C18.5582 19.4565 18.9055 19.7383 19.3314 20.0463C19.7573 20.3542 20.2029 20.7343 20.3208 20.8915C20.6026 21.2585 20.7336 21.7303 20.7336 22.3528C20.7336 23.2177 21.0285 23.8205 21.6903 24.3251C22.1031 24.6331 22.0572 24.6527 22.3783 24.0302C22.6535 23.4995 22.7846 22.9294 22.7846 22.2807C22.7846 21.573 22.6601 21.1078 22.208 20.0987L21.841 19.2862L21.0744 18.7357C20.655 18.4343 20.2946 18.1788 20.2749 18.1657C20.2553 18.1591 19.8687 18.4278 19.41 18.7554Z" fill="#63626D"/>
<path d="M9.20111 19.1223C9.20111 19.2337 8.99143 22.4445 8.98487 22.451C8.97832 22.4576 7.29431 23.6763 5.2368 25.1572C3.1793 26.6447 1.39044 27.9748 1.25939 28.119C0.682767 28.748 0.676214 29.7637 1.25939 30.3927C1.50184 30.6614 5.99035 33.5707 6.57353 33.8394C6.80942 33.9442 7.006 33.977 7.43192 33.977C8.06096 33.9704 8.38859 33.8525 8.86693 33.4397C9.21421 33.1448 9.33871 32.8827 11.1014 28.7218L12.4905 25.439L12.1956 24.9541C11.5731 23.9581 11.3438 23.2242 11.3438 22.2479C11.3438 21.5468 11.4617 20.9767 11.7304 20.3083C11.8156 20.0986 11.8877 19.9152 11.8877 19.9021C11.8877 19.889 11.7828 19.8955 11.6583 19.9086C11.1145 19.9741 10.1316 19.6924 9.5484 19.3058C9.35837 19.1813 9.20111 19.0961 9.20111 19.1223ZM8.47377 24.8362C8.6769 24.941 8.76864 25.2555 8.6638 25.4652C8.61793 25.57 7.84473 26.245 6.94702 26.9788C5.16473 28.427 5.08609 28.4728 4.77812 28.1386C4.6012 27.9486 4.56844 27.68 4.69949 27.5031C4.73881 27.4441 5.49891 26.8019 6.3835 26.0811C8.0282 24.7379 8.15925 24.6658 8.47377 24.8362Z" fill="#63626D"/>
<path d="M25.6088 19.4368C25.0846 19.771 24.5276 19.9348 23.8723 19.9414L23.3154 19.948L23.4661 20.4001C24.0558 22.0775 23.892 23.7615 23.027 25.0524L22.7125 25.5176L22.9288 26.0091C23.0402 26.2843 23.7413 27.9224 24.4752 29.6523C25.2091 31.3822 25.8971 32.9286 26.0085 33.0924C26.3951 33.6756 27.2272 34.0556 27.9611 33.9901C28.505 33.9442 28.8064 33.7739 31.4799 32.0637C34.0223 30.4255 34.1533 30.3141 34.304 29.6458C34.3695 29.3574 34.3695 29.2002 34.3106 28.9053C34.1599 28.178 34.4416 28.4139 28.4591 24.0892C27.2207 23.1915 26.1985 22.4576 26.1919 22.451C26.1919 22.4445 26.1395 21.7237 26.0805 20.8457C26.0281 19.9676 25.9692 19.2403 25.9626 19.2337C25.9495 19.2272 25.7922 19.3189 25.6088 19.4368ZM28.7605 26.0549C29.6255 26.7561 30.3856 27.3917 30.4511 27.4637C30.7656 27.8504 30.3397 28.4204 29.8679 28.2435C29.5862 28.1321 26.5654 25.6225 26.4934 25.439C26.4213 25.2424 26.5196 24.9345 26.6899 24.8362C27.0045 24.6527 27.1421 24.7313 28.7605 26.0549ZM31.873 28.8332C32.0696 29.2067 31.8468 29.6195 31.4471 29.6195C31.0605 29.6195 30.8443 29.2592 30.995 28.866C31.1129 28.5711 31.7223 28.5515 31.873 28.8332Z" fill="#63626D"/>
</svg>
